HIERARCHY
ROOT Hips
{
  OFFSET 267.745 86.9975 -272.335
  CHANNELS 6 Xposition Yposition Zposition Zrotation Xrotation Yrotation
  JOINT LeftUpLeg
  {
    OFFSET 8.64259 1.95398 -2.38835
    CHANNELS 3 Zrotation Xrotation Yrotation
    JOINT LeftLeg
    {
      OFFSET 43.7702 0 0
      CHANNELS 3 Zrotation Xrotation Yrotation
      JOINT LeftFoot
      {
        OFFSET 40.6238 0 0
        CHANNELS 3 Zrotation Xrotation Yrotation
        JOINT LeftToeBase
        {
          OFFSET 12.7242 0 0
          CHANNELS 3 Zrotation Xrotation Yrotation
          End Site
          {
            OFFSET 0 0 0
          }
        }
      }
    }
  }
  JOINT RightUpLeg
  {
    OFFSET -8.2249 1.95398 -2.59336
    CHANNELS 3 Zrotation Xrotation Yrotation
    JOINT RightLeg
    {
      OFFSET 43.5653 0 0
      CHANNELS 3 Zrotation Xrotation Yrotation
      JOINT RightFoot
      {
        OFFSET 40.6238 0 0
        CHANNELS 3 Zrotation Xrotation Yrotation
        JOINT RightToeBase
        {
          OFFSET 12.7242 0 0
          CHANNELS 3 Zrotation Xrotation Yrotation
          End Site
          {
            OFFSET 0 0 0
          }
        }
      }
    }
  }
  JOINT Spine
  {
    OFFSET 0.165834 0.87714 6.61349
    CHANNELS 3 Zrotation Xrotation Yrotation
    JOINT Spine1
    {
      OFFSET 7.38963 1.71661e-005 0
      CHANNELS 3 Zrotation Xrotation Yrotation
      JOINT Spine2
      {
        OFFSET 11.9445 1.14441e-005 0
        CHANNELS 3 Zrotation Xrotation Yrotation
        JOINT Spine3
        {
          OFFSET 14.7254 4.19617e-005 0
          CHANNELS 3 Zrotation Xrotation Yrotation
          JOINT Spine4
          {
            OFFSET 10.9679 0 0
            CHANNELS 3 Zrotation Xrotation Yrotation
            JOINT RightShoulder
            {
              OFFSET 2.46616 -1.6653 3.69651
              CHANNELS 3 Zrotation Xrotation Yrotation
              JOINT RightArm
              {
                OFFSET 13.0012 0 0
                CHANNELS 3 Zrotation Xrotation Yrotation
                JOINT RightForeArm
                {
                  OFFSET 28.7848 1.52588e-005 0
                  CHANNELS 3 Zrotation Xrotation Yrotation
                  JOINT RightHand
                  {
                    OFFSET 26.5688 1.52588e-005 0
                    CHANNELS 3 Zrotation Xrotation Yrotation
                    End Site
                    {
                      OFFSET 0 0 0
                    }
                  }
                }
              }
            }
            JOINT LeftShoulder
            {
              OFFSET 2.38034 -1.29275 -3.7523
              CHANNELS 3 Zrotation Xrotation Yrotation
              JOINT LeftArm
              {
                OFFSET 16.3182 6.10352e-005 0
                CHANNELS 3 Zrotation Xrotation Yrotation
                JOINT LeftForeArm
                {
                  OFFSET 27.0901 0 0
                  CHANNELS 3 Zrotation Xrotation Yrotation
                  JOINT LeftHand
                  {
                    OFFSET 24.5451 1.52588e-005 0
                    CHANNELS 3 Zrotation Xrotation Yrotation
                    End Site
                    {
                      OFFSET 0 0 0
                    }
                  }
                }
              }
            }
            JOINT Neck
            {
              OFFSET 5.0226 -0.0266342 0
              CHANNELS 3 Zrotation Xrotation Yrotation
              JOINT Head
              {
                OFFSET 6.69364 2.86102e-005 0
                CHANNELS 3 Zrotation Xrotation Yrotation
                End Site
                {
                  OFFSET 0 0 0
                }
              }
            }
          }
        }
      }
    }
  }
}
MOTION
Frames:	7
Frame Time:	0.0416667
-318.204 83.4162 330.636 99.9429 21.7701 75.4738 -166.225 21.211 88.7436 -37.3009 11.6457 -9.34653 64.0134 -5.13071 14.6663 43.7282 -1.73913 -4.65234 -177.008 -21.0112 70.6065 -41.225 -24.0545 -11.9028 63.8113 -3.23663 30.9997 78.7228 1.95778 39.597 3.91396 7.51522 -89.9934 11.8971 7.78625 -0.822524 0.249125 7.74245 -1.16648 -22.4702 7.67125 1.56989 -2.45758 7.67126 1.56989 116.129 -35.1282 -55.8428 39.0637 -19.9353 5.99113 -7.71682 -9.59433 -39.0755 -6.26429 -0.502189 4.51575 -70.1561 -48.8378 108.702 -33.3817 -4.47075 4.64025 0.856103 46.5054 -4.13448 -15.0199 -0.705784 1.17762 -11.8108 4.65725 18.4621 -16.4737 11.6985 -58.7893 
-312.152 86.2873 323.114 100.724 23.2594 74.5713 -174.507 10.9965 79.7372 -31.4177 -41.2827 -0.519442 40.6678 -20.8788 -9.73738 -0.235422 -2.69432 -27.8697 -172.061 -7.07978 75.1282 -61.7105 -17.2653 -12.1046 69.8593 -1.57137 27.4662 71.3723 1.0834 39.4648 3.49541 7.76423 -89.853 11.3767 7.02387 -0.414084 -0.275402 6.99877 -0.724349 -22.9577 6.82201 1.72619 -2.94504 6.82196 1.72618 113.115 -34.4035 -61.1987 42.1141 -15.2147 9.203 -9.69055 -15.8021 -35.7186 -5.88218 -0.635722 8.2269 -72.8301 -52.2809 104.301 -33.5483 -3.87435 -4.36519 -1.40921 46.8664 0.251666 -12.6584 -0.139659 -3.71786 -5.00238 4.34213 20.1754 -21.2802 12.6478 -58.7962 
-306.573 89.5644 316.322 102.092 25.4898 75.4251 -176.788 -1.42682 85.187 -10.8937 -78.0304 8.18834 7.8152 -20.7997 -37.6603 -42.9609 -13.5494 -4.30085 -169.804 5.73385 80.5212 -71.3602 -12.716 -10.4076 62.2061 2.7254 18.3199 67.4045 0.807509 42.522 3.00288 8.01334 -90.0428 10.8787 5.95904 -0.643464 -0.778867 5.92491 -0.906026 -23.4217 5.87598 1.18362 -3.40903 5.87597 1.18362 110.954 -33.3184 -65.0133 44.3279 -10.24 8.41704 -7.29722 -20.533 -27.1652 -7.72891 -0.555311 3.32199 -74.3916 -54.2108 101.876 -34.5812 -0.785055 -15.5323 -1.43968 48.3348 0.274809 -7.79102 0.0226901 -6.28221 -0.329047 4.16319 21.6725 -25.5291 12.8744 -55.4641 
-301.485 91.0879 310.439 103.331 27.6225 77.3698 -172.923 -10.9262 83.1391 -9.305 4.87432 -3.91274 63.2691 0.214309 14.2893 37.271 1.99926 -13.4424 -171.281 15.544 86.997 -67.0787 -13.8575 -8.50598 53.7663 6.65238 10.8464 43.8937 -1.52542 13.7335 2.5769 8.11857 -90.347 10.6695 4.97225 -1.14396 -0.992648 4.91707 -1.36218 -23.6044 5.08559 0.407208 -3.59173 5.08561 0.407206 109.403 -32.8112 -67.9064 45.5719 -8.09118 9.33838 -6.19255 -24.1968 -22.511 -9.78259 -0.527684 1.17181 -74.5083 -53.4394 101.751 -35.0052 5.86666 -24.8068 -0.677914 43.3192 -3.72686 4.80771 -0.411198 -8.97098 3.0408 3.80224 21.312 -29.4469 12.1516 -49.0929 
-296.613 91.0894 305.132 104.366 28.8751 76.8286 -173.081 -20.4245 84.6652 -1.46797 8.90213 -4.54783 61.7774 4.34068 16.2251 39.2393 -1.08516 -3.41947 -174.831 19.9368 88.9023 -50.4114 -16.7921 -6.61021 58.4848 5.18424 12.8935 39.5188 -2.59932 6.03412 2.28531 8.20464 -90.3459 10.4909 4.39347 -1.07757 -1.17325 4.34176 -1.27023 -23.7682 4.51378 0.295367 -3.75555 4.51379 0.295367 107.985 -35.3452 -71.1073 44.1262 -5.75228 11.7769 -5.32916 -23.7736 -21.5188 -12.0925 -0.787694 2.46645 -75.344 -54.347 100.494 -29.9888 11.5075 -31.1363 3.4926 38.957 -13.6687 6.94766 -0.599794 -10.6115 3.26997 2.91943 19.4469 -28.316 9.35619 -42.7989 
-291.571 90.8081 299.808 104.366 30.5138 73.9477 -175.195 -24.1351 81.2049 -2.57739 9.7085 -5.08264 62.5783 5.80434 17.4854 44.3588 -1.78083 -2.19708 -178.175 21.3082 87.0973 -27.5332 -18.6525 -4.818 58.9558 7.43322 15.8064 25.6953 0.496047 1.71121 1.97266 8.18173 -89.9609 10.5223 3.94732 -0.273146 -1.14269 3.93146 -0.446883 -23.7246 3.84662 0.927634 -3.71196 3.84662 0.927627 106.772 -40.8946 -74.0626 39.7498 -3.14816 12.874 -3.32791 -19.2816 -19.8059 -10.4714 -0.418807 -0.535341 -76.8786 -55.7128 98.2561 -24.5705 13.6737 -35.7602 7.14416 39.9548 -20.2021 6.35143 -0.181984 -5.61422 -0.336378 1.6353 16.1854 -20.5814 5.00086 -36.7455 
-285.921 90.1256 294.386 105.999 32.4916 69.3755 -177.348 -28.684 78.019 -5.02113 12.5004 -5.25867 60.0929 4.48067 14.7049 50.8268 -2.3133 1.71882 -178.886 23.024 83.2999 -24.8283 -11.8765 -4.79392 63.5318 8.31354 23.9503 23.2515 2.71111 -8.90785 1.65922 8.25551 -89.5579 10.3551 3.50781 0.57247 -1.31121 3.5296 0.417327 -23.8778 3.17345 1.60122 -3.86513 3.17344 1.60121 105.565 -47.1052 -76.6643 34.6535 -1.56264 12.3508 -2.43392 -18.4669 -18.1658 -10.9634 -0.407498 -0.927177 -80.0036 -56.9961 93.8494 -22.4995 12.3386 -36.8943 5.4035 41.526 -17.858 5.2575 -0.314057 -7.75442 -5.71634 0.423814 11.6763 -10.6605 1.11086 -28.631 
